<?xml version="1.0" encoding="UTF-8"?><svg id="a" xmlns="http://www.w3.org/2000/svg" viewBox="0 0 280.28 155.06"><defs><style>.b{stroke:#92cfbb;}.b,.c,.d{fill:none;stroke-linecap:round;stroke-linejoin:round;stroke-width:2px;}.c{stroke:#f5ad3b;}.d{stroke:#ea5b76;}.e{fill:#fff;stroke:#fff;stroke-miterlimit:10;stroke-width:.75px;}</style></defs><path class="e" d="m13.29,47.36L2.05,17.41h1.01l10.82,28.95,10.82-28.95h.97l-11.24,29.96h-1.13Z"/><path class="e" d="m38.55,48.03c-3.05,0-5.43-1-7.15-3-1.72-2-2.58-4.79-2.58-8.37s.87-6.38,2.6-8.39c1.73-2.01,4.13-3.02,7.17-3.02s5.43,1.01,7.15,3.02,2.58,4.81,2.58,8.39-.86,6.33-2.58,8.35c-1.72,2.01-4.12,3.02-7.19,3.02Zm0-.84c2.82,0,5.01-.92,6.54-2.75,1.54-1.83,2.31-4.43,2.31-7.78s-.78-5.96-2.33-7.8c-1.55-1.85-3.73-2.77-6.52-2.77s-4.96.92-6.5,2.77c-1.54,1.85-2.31,4.45-2.31,7.8s.77,5.95,2.31,7.78c1.54,1.83,3.71,2.75,6.5,2.75Z"/><path class="e" d="m70.68,40.31c-.36,2.43-1.3,4.33-2.81,5.69-1.51,1.36-3.47,2.03-5.87,2.03-2.94,0-5.25-.99-6.94-2.98-1.69-1.99-2.54-4.73-2.54-8.22s.87-6.4,2.6-8.47c1.73-2.07,4.1-3.1,7.09-3.1,2.15,0,3.92.58,5.29,1.74,1.37,1.16,2.31,2.89,2.81,5.18l-.8.17c-.5-2.12-1.36-3.7-2.56-4.72-1.2-1.02-2.8-1.53-4.78-1.53-2.74,0-4.88.95-6.42,2.85-1.54,1.9-2.31,4.5-2.31,7.8s.75,5.83,2.24,7.68c1.5,1.85,3.6,2.77,6.31,2.77,2.15,0,3.9-.59,5.24-1.78,1.34-1.19,2.21-2.89,2.6-5.1h.84Z"/><path class="e" d="m90.36,47.36v-4.03c-.84,1.48-1.95,2.61-3.34,3.38-1.38.77-2.97,1.15-4.76,1.15-2.43,0-4.31-.57-5.62-1.7-1.31-1.13-1.97-2.75-1.97-4.85,0-2.32.83-4.03,2.5-5.12,1.66-1.09,4.37-1.71,8.12-1.85l5.08-.21v-1.05c0-2.57-.51-4.38-1.53-5.43-1.02-1.05-2.76-1.57-5.22-1.57-2.04,0-3.64.36-4.8,1.09-1.16.73-1.92,1.85-2.29,3.36l-.8-.17c.34-1.68,1.17-2.95,2.52-3.82,1.34-.87,3.16-1.3,5.45-1.3,2.66,0,4.58.62,5.77,1.85,1.19,1.23,1.78,3.19,1.78,5.87v14.39h-.88Zm0-12.42l-4.95.21c-2.49.11-4.44.39-5.85.84-1.41.45-2.43,1.11-3.04,1.97-.62.87-.92,1.99-.92,3.36,0,1.85.57,3.26,1.72,4.24,1.15.98,2.8,1.47,4.95,1.47,2.66,0,4.82-.88,6.5-2.64.59-.64,1-1.28,1.24-1.91.24-.63.36-1.41.36-2.33v-5.2Z"/><path class="e" d="m97.32,47.36v-29.96h.88v29.96h-.88Z"/><path class="e" d="m124.13,47.36l-6.46-14.05c-.78.14-1.69.21-2.73.21h-9.1v13.84h-.92v-29.96h10.19c6.07,0,9.1,2.67,9.1,8.01,0,2.07-.48,3.75-1.45,5.06-.97,1.3-2.37,2.19-4.22,2.66l6.59,14.22h-1.01Zm-9.15-14.73c2.82,0,4.91-.59,6.25-1.78,1.34-1.19,2.01-3,2.01-5.43s-.67-4.26-2.01-5.41c-1.34-1.15-3.44-1.72-6.29-1.72h-9.1v14.35h9.15Z"/><path class="e" d="m146.79,42.24c-.39,1.82-1.31,3.24-2.75,4.26-1.44,1.02-3.24,1.53-5.39,1.53-3.02,0-5.36-.97-7.03-2.92-1.66-1.94-2.5-4.71-2.5-8.29s.84-6.51,2.52-8.54c1.68-2.03,4.03-3.04,7.05-3.04,2.8,0,4.93.93,6.4,2.79,1.47,1.86,2.2,4.57,2.2,8.12v.71h-17.29c.03,3.33.78,5.88,2.27,7.66,1.48,1.78,3.61,2.66,6.38,2.66,1.96,0,3.57-.43,4.82-1.3,1.26-.87,2.08-2.08,2.48-3.65h.84Zm-.38-6.17c0-3.27-.65-5.75-1.95-7.45-1.3-1.69-3.22-2.54-5.77-2.54s-4.74.86-6.25,2.58-2.32,4.19-2.43,7.4h16.4Z"/><path class="e" d="m180.85,47.36v-14.6c0-2.24-.47-3.91-1.41-5.01-.94-1.1-2.38-1.66-4.34-1.66-2.35,0-4.34.9-5.96,2.69-.73.78-1.17,1.46-1.34,2.03-.17.57-.25,1.63-.25,3.17v13.38h-.88v-14.6c0-4.45-1.92-6.67-5.75-6.67-2.35,0-4.34.9-5.96,2.69-.7.76-1.14,1.43-1.32,2.03-.18.6-.27,1.66-.27,3.17v13.38h-.88v-21.44h.88v3.73c.9-1.4,2.01-2.48,3.36-3.25,1.34-.77,2.78-1.15,4.32-1.15,3.41,0,5.48,1.58,6.21,4.74.95-1.48,2.13-2.64,3.52-3.48,1.4-.84,2.88-1.26,4.45-1.26,2.15,0,3.78.62,4.87,1.87,1.09,1.25,1.64,3.08,1.64,5.52v14.73h-.88Z"/><path class="e" d="m187.82,21.27v-3.86h.88v3.86h-.88Zm0,26.1v-21.44h.88v21.44h-.88Z"/><path class="e" d="m209.21,47.36l-8.1-10.74-7.93,10.74h-.96l8.35-11.37-7.64-10.07h1.01l7.17,9.44,7.22-9.44h.96l-7.68,10.03,8.6,11.41h-1.01Z"/><path class="e" d="m230.4,42.24c-.39,1.82-1.31,3.24-2.75,4.26-1.44,1.02-3.24,1.53-5.39,1.53-3.02,0-5.36-.97-7.03-2.92-1.66-1.94-2.5-4.71-2.5-8.29s.84-6.51,2.52-8.54c1.68-2.03,4.03-3.04,7.05-3.04,2.8,0,4.93.93,6.4,2.79,1.47,1.86,2.2,4.57,2.2,8.12v.71h-17.29c.03,3.33.78,5.88,2.27,7.66,1.48,1.78,3.61,2.66,6.38,2.66,1.96,0,3.57-.43,4.82-1.3,1.26-.87,2.08-2.08,2.48-3.65h.84Zm-.38-6.17c0-3.27-.65-5.75-1.95-7.45-1.3-1.69-3.22-2.54-5.77-2.54s-4.74.86-6.25,2.58-2.32,4.19-2.43,7.4h16.4Z"/><path class="e" d="m236.1,47.36v-21.44h.88v3.86c1.82-2.8,4.31-4.2,7.47-4.2.53,0,1.06.04,1.59.13l-.13.88c-.53-.08-1.02-.13-1.47-.13-1.4,0-2.64.27-3.71.82s-2.03,1.39-2.87,2.54c-.36.5-.6,1.02-.71,1.55-.11.53-.17,1.4-.17,2.6v13.38h-.88Z"/><polyline class="c" points="1 135.32 127 135.32 134.82 123.78 141.33 147.68 150.92 118.74 157.82 154.06 166.39 123.06 173.4 144.08 183.82 115.85 188.72 151.56 197.82 130.27 203.09 138.92 209.15 128.11 213.67 133.1 220.54 141.46 225.68 129.11 228.03 147.68 236.27 125.18 240.8 139.99 246.43 123.06 251.04 154.06 258.21 135.32 278.1 135.32"/><polyline class="b" points="278.1 104.79 258.21 104.79 251.04 123.53 246.43 92.54 240.8 109.46 236.27 94.66 228.03 117.15 225.68 98.58 220.54 110.94 211.52 104.79 132.71 104.79 129.63 99.74 120.53 121.03 115.63 85.32 105.22 113.54 98.21 92.53 89.63 123.53 82.74 88.21 73.14 117.14 66.63 93.25 58.81 104.79 1 104.79"/><polyline class="d" points="278.1 74.25 258.21 74.25 251.04 92.99 246.43 62 240.8 78.92 236.27 64.12 228.03 86.61 225.68 68.04 220.54 80.4 211.52 74.26 86.08 74.26 83 69.21 73.9 90.5 69 54.8 58.59 83.02 51.58 62 43 93 36.11 57.68 26.51 86.62 20 62.72 12.18 74.26 1 74.26"/><path class="e" d="m251.51,44.4c1.28-1.13,2.75-2.44,4.41-3.92,1.66-1.48,3.33-2.95,5.02-4.41,1.86-1.61,3.5-3.09,4.91-4.44,1.41-1.35,2.58-2.67,3.51-3.95.93-1.28,1.64-2.57,2.11-3.87.47-1.3.71-2.7.71-4.19,0-2.74-.71-4.79-2.14-6.14-1.43-1.35-3.45-2.03-6.09-2.03-1.57,0-2.9.17-3.98.52-1.08.35-1.98.83-2.71,1.45-.73.62-1.33,1.39-1.78,2.3-.46.91-.87,1.92-1.23,3.02l-2.91-.6c.29-1.13.73-2.28,1.32-3.45.58-1.17,1.37-2.21,2.36-3.12.99-.91,2.22-1.66,3.7-2.25,1.48-.58,3.28-.88,5.4-.88,1.83,0,3.45.27,4.88.79,1.43.53,2.62,1.28,3.59,2.25.97.97,1.71,2.11,2.22,3.43.51,1.32.77,2.74.77,4.28,0,1.72-.26,3.33-.77,4.82-.51,1.5-1.29,2.99-2.33,4.47-1.04,1.48-2.37,3.01-3.98,4.58-1.61,1.57-3.51,3.29-5.7,5.15-1.13.95-2.32,1.97-3.56,3.04-1.24,1.08-2.41,2.09-3.51,3.04h20.18l-.66,3.07h-23.74v-2.96Z"/></svg>